HIERARCHY
ROOT Hips
{
	OFFSET	0.00	0.00	0.00
	CHANNELS 6 Xposition Yposition Zposition Zrotation Xrotation Yrotation
	JOINT LeftUpLeg
	{
		OFFSET	 0.126116	-0.014019	-0.065224
		CHANNELS 3 Zrotation Xrotation Yrotation
		JOINT LeftLeg
		{
			OFFSET	 0.000000	 0.000000	 0.569914
			CHANNELS 3 Zrotation Xrotation Yrotation
			JOINT LeftFoot
			{
				OFFSET	 0.000000	 0.000000	 0.544423
				CHANNELS 3 Zrotation Xrotation Yrotation
				JOINT LeftToeBase
				{
					OFFSET	 0.000000	 0.000000	 0.207117
					CHANNELS 3 Zrotation Xrotation Yrotation
					End Site
					{
						OFFSET	 0.000000	 0.000000	 0.207117
					}
				}
			}
		}
	}
	JOINT RightUpLeg
	{
		OFFSET	-0.124023	-0.008373	-0.065224
		CHANNELS 3 Zrotation Xrotation Yrotation
		JOINT RightLeg
		{
			OFFSET	 0.000000	 0.000000	 0.570047
			CHANNELS 3 Zrotation Xrotation Yrotation
			JOINT RightFoot
			{
				OFFSET	 0.000000	 0.000000	 0.544354
				CHANNELS 3 Zrotation Xrotation Yrotation
				JOINT RightToeBase
				{
					OFFSET	 0.000000	 0.000000	 0.207540
					CHANNELS 3 Zrotation Xrotation Yrotation
					End Site
					{
						OFFSET	 0.000000	 0.000000	 0.207540
					}
				}
			}
		}
	}
	JOINT Spine
	{
		OFFSET	 0.000184	-0.007763	 0.117403
		CHANNELS 3 Zrotation Xrotation Yrotation
		JOINT Spine1
		{
			OFFSET	 0.000000	 0.000000	 0.137269
			CHANNELS 3 Zrotation Xrotation Yrotation
			JOINT Spine2
			{
				OFFSET	 0.000000	 0.000000	 0.156879
				CHANNELS 3 Zrotation Xrotation Yrotation
				JOINT LeftShoulder
				{
					OFFSET	 0.080501	-0.002496	 0.160144
					CHANNELS 3 Zrotation Xrotation Yrotation
					JOINT LeftArm
					{
						OFFSET	 0.000000	 0.000000	 0.164363
						CHANNELS 3 Zrotation Xrotation Yrotation
						JOINT LeftForeArm
						{
							OFFSET	 0.000000	 0.000000	 0.364576
							CHANNELS 3 Zrotation Xrotation Yrotation
							JOINT LeftHand
							{
								OFFSET	 0.000000	 0.000000	 0.360812
								CHANNELS 3 Zrotation Xrotation Yrotation
								JOINT LeftHandIndex1
								{
									OFFSET	 0.000000	 0.000000	 0.086006
									CHANNELS 3 Zrotation Xrotation Yrotation
									JOINT LeftHandIndex2
									{
										OFFSET	 0.000000	 0.000000	 0.047236
										CHANNELS 3 Zrotation Xrotation Yrotation
										JOINT LeftHandIndex3
										{
											OFFSET	-0.004284	-0.000551	 0.038166
											CHANNELS 3 Zrotation Xrotation Yrotation
											End Site
											{
												OFFSET	-0.004284	-0.000551	 0.038166
											}
										}
									}
								}
							}
						}
					}
				}
				JOINT Neck
				{
					OFFSET	 0.000000	 0.000000	 0.176489
					CHANNELS 3 Zrotation Xrotation Yrotation
					JOINT Head
					{
						OFFSET	 0.000000	-0.001747	 0.077940
						CHANNELS 3 Zrotation Xrotation Yrotation
						End Site
						{
							OFFSET	 0.000000	-0.001747	 0.077940
						}
					}
				}
				JOINT RightShoulder
				{
					OFFSET	-0.080363	 0.000306	 0.159706
					CHANNELS 3 Zrotation Xrotation Yrotation
					JOINT RightArm
					{
						OFFSET	 0.000000	 0.000000	 0.164196
						CHANNELS 3 Zrotation Xrotation Yrotation
						JOINT RightForeArm
						{
							OFFSET	 0.000000	 0.000000	 0.365611
							CHANNELS 3 Zrotation Xrotation Yrotation
							JOINT RightHand
							{
								OFFSET	 0.000000	 0.000000	 0.360648
								CHANNELS 3 Zrotation Xrotation Yrotation
								JOINT RightHandIndex1
								{
									OFFSET	 0.000000	 0.000000	 0.069977
									CHANNELS 3 Zrotation Xrotation Yrotation
									JOINT RightHandIndex2
									{
										OFFSET	 0.000000	 0.000000	 0.052305
										CHANNELS 3 Zrotation Xrotation Yrotation
										JOINT RightHandIndex3
										{
											OFFSET	 0.009002	-0.000782	 0.042196
											CHANNELS 3 Zrotation Xrotation Yrotation
											End Site
											{
												OFFSET	 0.009002	-0.000782	 0.042196
											}
										}
									}
								}
							}
						}
					}
				}
			}
		}
	}
}
MOTION
Frames:    4
Frame Time: 0.03333334
-0.033748	 0.283897	 0.969101	 3.044945	 33.176140	-8.015557	 82.371000	-82.464980	-103.896100	 9.889858	-77.998250	 10.085790	 62.372390	 79.942510	-69.438700	-2.385832	 28.452790	-0.000001	 104.608400	-82.420500	-74.539150	-28.429950	-81.651390	-23.062850	-10.277360	 82.462660	 30.410060	 2.384659	 28.388700	-0.000001	-4.480555	 15.225130	 0.421963	-1.736087	 22.102610	 0.885120	-5.286972	-0.962969	 3.983474	-99.058940	 68.188920	 157.128000	 3.122874	-8.552405	-48.681680	-25.927800	 2.567026	-7.540074	-24.339860	-18.757760	-18.273690	-2.027600	 6.559038	 9.033609	-5.188889	 0.308190	 3.541030	-5.234859	 0.342567	 0.430617	 0.079976	 16.073330	-5.292157	-4.391102	-25.123510	-3.036809	 97.363200	 64.597890	-159.447400	-7.943658	 5.241881	 59.244430	 9.041436	 9.216567	 28.623040	 8.508829	-17.661890	 14.290080	 1.803333	 3.979147	-15.098590	 4.898592	 3.004813	-9.310344	 5.224449	 0.395017	 2.014677
-0.032548	 0.281396	 0.981283	 2.844163	 32.111970	-7.480615	 66.713520	-81.847560	-119.715200	 8.564337	-76.542870	 8.738160	 59.703570	 79.953140	-66.582990	-2.385832	 28.452790	-0.000001	 85.615330	-83.540780	-93.053530	-25.419650	-80.193000	-20.000760	-10.313910	 82.306370	 30.277160	 2.384659	 28.388700	-0.000001	-3.168097	 15.121160	 0.296920	-1.412251	 22.653540	 0.486825	-5.359862	-2.084182	 3.636497	-98.575220	 68.682140	 157.887700	 3.410128	-6.315068	-49.805970	-25.480580	 2.541284	-7.509435	-25.003970	-19.170890	-18.999960	-2.027600	 6.559038	 9.033609	-5.188889	 0.308190	 3.541030	-5.234859	 0.342567	 0.430617	-0.426283	 11.838830	-4.256426	-4.565318	-20.915860	-3.180250	 97.114210	 64.195750	-160.454700	-8.861283	 5.031476	 58.869350	 9.161965	 9.848378	 30.211580	 8.328961	-17.575290	 15.489670	 1.803333	 3.979147	-15.098590	 4.898592	 3.004813	-9.310344	 5.224449	 0.395017	 2.014677
-0.030873	 0.278990	 0.995006	 2.582710	 30.882520	-6.867272	 52.669320	-80.519950	-133.979400	 7.414603	-74.855140	 7.562360	 56.771330	 79.932290	-63.446680	-2.385832	 28.452790	-0.000001	 59.231670	-83.651120	-118.932600	-22.986600	-78.458820	-17.501850	-10.173840	 82.144520	 29.943450	 2.384659	 28.388700	-0.000001	-1.874964	 15.017210	 0.179411	-1.137478	 23.109900	 0.147298	-5.447612	-3.328710	 3.235898	-97.849450	 69.653310	 158.709000	 4.109986	-3.392352	-50.939720	-24.933750	 2.505223	-7.465015	-25.744980	-19.638510	-20.101260	-2.027600	 6.559038	 9.033609	-5.188889	 0.308190	 3.541030	-5.234859	 0.342567	 0.430617	-0.821762	 6.828308	-3.163101	-4.760736	-16.008590	-3.409405	 96.809300	 64.219610	-161.214700	-9.985277	 5.661445	 58.080250	 8.776200	 10.343500	 32.059040	 8.061506	-17.374330	 16.399450	 1.803333	 3.979147	-15.098590	 4.898592	 3.004813	-9.310344	 5.224449	 0.395017	 2.014677
-0.028741	 0.276336	 1.010378	 2.301059	 29.468660	-6.170442	 41.431020	-78.500660	-145.490600	 6.592528	-72.913510	 6.702587	 53.688210	 79.869360	-60.173600	-2.385833	 28.452760	 0.000004	 34.224690	-82.268130	-143.391300	-21.109880	-76.409840	-15.538520	-9.889075	 81.975840	 29.495400	 2.384659	 28.388700	-0.000001	-0.532879	 14.908590	 0.047841	-0.850571	 23.458270	-0.199015	-5.539083	-4.656444	 2.833216	-96.735840	 71.382680	 159.545200	 5.113465	 0.366368	-52.400380	-24.273000	 2.457016	-7.403841	-26.606000	-20.196110	-21.389310	-2.027600	 6.559038	 9.033609	-5.188889	 0.308190	 3.541030	-5.234859	 0.342567	 0.430617	-1.107151	 1.193631	-2.354508	-4.862780	-10.542440	-3.398064	 96.291210	 64.956220	-161.944300	-11.280070	 7.298831	 57.377140	 7.989953	 10.722230	 34.224070	 7.873769	-17.424130	 17.151710	 1.803333	 3.979147	-15.098590	 4.898592	 3.004813	-9.310344	 5.224449	 0.395017	 2.014677
